<?xml version="1.0" standalone="no"?>
<!DOCTYPE svg PUBLIC "-//W3C//DTD SVG 20010904//EN"
 "http://www.w3.org/TR/2001/REC-SVG-20010904/DTD/svg10.dtd">
<svg version="1.0" xmlns="http://www.w3.org/2000/svg"
 width="512.000000pt" height="512.000000pt" viewBox="0 0 512.000000 512.000000"
 preserveAspectRatio="xMidYMid meet">
<metadata>
Created by potrace 1.11, written by Peter Selinger 2001-2013
</metadata>
<g transform="translate(0.000000,512.000000) scale(0.100000,-0.100000)"
fill="#000000" stroke="none">
<path d="M2497 4554 c-1 -1 -45 -4 -97 -7 -52 -4 -106 -9 -120 -12 -14 -3 -45
-8 -70 -12 -71 -9 -285 -70 -384 -109 -114 -46 -259 -119 -298 -152 -26 -22
-29 -31 -25 -63 3 -23 1 -39 -7 -42 -6 -3 -42 -28 -79 -56 -47 -35 -73 -49
-80 -42 -12 9 -39 14 -68 12 -21 -1 -187 -166 -262 -260 -132 -165 -249 -372
-316 -556 l-29 -80 -312 -5 -312 -5 -19 -24 c-18 -22 -19 -47 -19 -581 0 -534
1 -559 19 -581 l19 -24 312 -5 312 -5 29 -80 c36 -97 123 -275 183 -370 108
-173 297 -380 459 -507 297 -229 614 -359 997 -409 82 -10 352 -14 416 -5 17
3 60 8 95 11 35 4 66 8 70 10 3 2 21 7 40 10 217 36 503 155 714 297 111 74
129 88 239 188 223 201 415 483 519 760 l35 95 312 5 312 5 19 24 c18 22 19
47 19 583 l0 559 -25 24 c-23 24 -29 25 -152 25 -135 -1 -145 -3 -175 -51 -15
-24 -19 -25 -104 -23 -111 2 -104 1 -104 19 0 22 -35 49 -71 55 -28 5 -34 12
-59 80 -187 514 -603 946 -1110 1155 -68 27 -227 80 -270 89 -185 39 -308 55
-453 59 -54 2 -99 2 -100 1z"/>
</g>
</svg>
